HIERARCHY
ROOT Hips
{
	OFFSET 0.00000 0.00000 0.00000
	CHANNELS 6 Xposition Yposition Zposition Zrotation Yrotation Xrotation 
	JOINT LHipJoint
	{
		OFFSET 0 0 0
		CHANNELS 3 Zrotation Yrotation Xrotation
		JOINT LeftHip
		{
			OFFSET 1.48831 -1.59570 0.95625
			CHANNELS 3 Zrotation Yrotation Xrotation
			JOINT LeftKnee
			{
				OFFSET 2.20856 -6.06797 0.00000
				CHANNELS 3 Zrotation Yrotation Xrotation
				JOINT LeftAnkle
				{
					OFFSET 2.62924 -7.22379 0.00000
					CHANNELS 3 Zrotation Yrotation Xrotation
					JOINT LeftToe
					{
						OFFSET 0.16802 -0.46163 2.41673
						CHANNELS 3 Zrotation Yrotation Xrotation
						End Site
						{
							OFFSET 0.00000 -0.00000 1.23760
						}
					}
				}
			}
		}
	}
	JOINT RHipJoint
	{
		OFFSET 0 0 0
		CHANNELS 3 Zrotation Yrotation Xrotation
		JOINT RightHip
		{
			OFFSET -1.56796 -1.59570 0.95625
			CHANNELS 3 Zrotation Yrotation Xrotation
			JOINT RightKnee
			{
				OFFSET -2.29239 -6.29829 0.00000
				CHANNELS 3 Zrotation Yrotation Xrotation
				JOINT RightAnkle
				{
					OFFSET -2.66963 -7.33475 0.00000
					CHANNELS 3 Zrotation Yrotation Xrotation
					JOINT RightToe
					{
						OFFSET -0.18185 -0.49964 2.34359
						CHANNELS 3 Zrotation Yrotation Xrotation
						End Site
						{
							OFFSET -0.00000 -0.00000 1.20477
						}
					}
				}
			}
		}
	}
	JOINT lowerback
	{
		OFFSET 0 0 0
		CHANNELS 3 Zrotation Yrotation Xrotation
		JOINT Chest
		{
			OFFSET 0.03505 2.15832 -0.34324
			CHANNELS 3 Zrotation Yrotation Xrotation
			JOINT Chest2
			{
				OFFSET -0.01089 2.17963 0.04689
				CHANNELS 3 Zrotation Yrotation Xrotation
				JOINT lowerneck
				{
					OFFSET 0 0 0
					CHANNELS 3 Zrotation Yrotation Xrotation
					JOINT Neck
					{
						OFFSET 0.04686 1.69404 0.22159
						CHANNELS 3 Zrotation Yrotation Xrotation
						JOINT Head
						{
							OFFSET 0.00265 1.69305 -0.01513
							CHANNELS 3 Zrotation Yrotation Xrotation
							End Site
							{
								OFFSET -0.00415 1.80215 -0.03034
							}
						}
					}
				}
				JOINT LeftCollar
				{
					OFFSET 0 0 0
					CHANNELS 3 Zrotation Yrotation Xrotation
					JOINT LeftShoulder
					{
						OFFSET 3.67184 1.11724 -0.19002
CHANNELS 3 Zrotation Xrotation Yrotation
						JOINT LeftElbow
						{
OFFSET 0 -5.177140 -0.000000
CHANNELS 3 Zrotation Xrotation Yrotation
							JOINT LeftWrist
							{
OFFSET 0 -3.436790 -0.000000
CHANNELS 3 Zrotation Xrotation Yrotation
								JOINT lhand
								{
									OFFSET 0 0 0
CHANNELS 3 Zrotation Xrotation Yrotation
									JOINT LFingers
									{
OFFSET 0 -0.573120 -0.000000
CHANNELS 3 Zrotation Xrotation Yrotation
										End Site
										{
OFFSET 0 -0.462060 -0.000000
										}
									}
								}
								JOINT LThumb
								{
OFFSET 0 0.000000 0.000000
CHANNELS 3 Zrotation Xrotation Yrotation
									End Site
									{
OFFSET 0 -0.469120 0.469120
									}
								}
							}
						}
					}
				}
				JOINT RightCollar
				{
					OFFSET 0 0 0
					CHANNELS 3 Zrotation Yrotation Xrotation
					JOINT RightShoulder
					{
						OFFSET -3.59596 0.95831 -0.26050
CHANNELS 3 Zrotation Xrotation Yrotation
						JOINT RightElbow
						{
OFFSET 0 -5.239080 -0.000000
CHANNELS 3 Zrotation Xrotation Yrotation
							JOINT RightWrist
							{
OFFSET 0 -3.464850 -0.000000
CHANNELS 3 Zrotation Xrotation Yrotation
								JOINT rhand
								{
									OFFSET 0 0 0
CHANNELS 3 Zrotation Xrotation Yrotation
									JOINT RFingers
									{
OFFSET 0 -0.608750 -0.000000
CHANNELS 3 Zrotation Xrotation Yrotation
										End Site
										{
OFFSET 0 -0.490790 -0.000000
										}
									}
								}
								JOINT RThumb
								{
OFFSET 0 0.000000 0.000000
CHANNELS 3 Zrotation Xrotation Yrotation
									End Site
									{
OFFSET 0 -0.498290 0.498290
									}
								}
							}
						}
					}
				}
			}
		}
	}
}
MOTION
Frames: 7
Frame Time: 0.008333333333333333
49.795000 16.026900 17.626400 -174.741000 -47.427500 176.393000 0.000000 0.000000 0.000000 -16.701300 6.871900 -9.016000 1.935800 8.731100 24.957600 1.152800 -4.165000 -19.338400 0.030300 -1.123900 -3.089700 0.000000 0.000000 0.000000 25.529800 5.740200 -9.944700 -3.351000 -11.242600 33.102600 -1.859200 -4.009500 -27.449700 -0.015800 -0.811200 2.229500 3.764600 -0.311700 -1.902000 0.789500 -0.667300 3.298600 -1.333400 -0.245900 4.443700 1.350600 -1.568100 -4.305900 2.936900 -2.295200 2.038100 0.627200 -1.094600 1.373500 -0.000000 0.000000 0.000000 0.921200 -2.812700 -18.252200 12.925700 -21.178300 2.426400 18.159700 -14.388100 -8.929600 0.000000 0.000000 0.000000 -7.125000 0.000000 0.000000 -7.608200 39.260900 -1.083300 -0.000000 0.000000 0.000000 -1.306200 -0.510400 19.951200 -15.080400 -24.257900 -3.258900 -19.874600 3.194000 4.257800 0.000000 0.000000 0.000000 7.125000 0.000000 -0.000000 5.585300 34.464400 1.450000
49.797005 16.027061 17.625017 -174.729219 -47.424739 176.396703 0.000000 0.000000 0.000000 -16.698433 6.802239 -9.007050 1.935870 8.731202 24.958048 1.152827 -4.077074 -19.350145 0.034187 -1.193157 -3.280379 0.000000 0.000000 0.000000 25.545727 5.753920 -9.963136 -3.352156 -11.244395 33.108725 -1.859991 -4.019215 -27.459442 -0.016139 -0.819802 2.253075 3.766037 -0.292446 -1.869400 0.750355 -0.637104 3.285067 -1.372664 -0.230347 4.412111 1.411007 -1.610629 -4.376773 2.881845 -2.361064 2.247726 0.597336 -1.123697 1.451667 0.000000 0.000000 0.000000 0.998548 -2.754633 -18.397563 12.947530 -21.210314 2.434258 18.171122 -14.406906 -8.975777 0.000000 0.000000 0.000000 -7.125000 0.000000 0.000000 -7.605795 39.309777 -1.073744 0.000000 0.000000 0.000000 -1.267238 -0.496144 19.971450 -15.096070 -24.279775 -3.265344 -19.856297 3.196354 4.340920 0.000000 0.000000 0.000000 7.125000 0.000000 0.000000 5.608090 34.551607 1.444091
49.797800 16.027522 17.623791 -174.740563 -47.381191 176.450093 0.000000 0.000000 0.000000 -16.710444 6.779972 -9.044247 1.937022 8.733722 24.965766 1.154622 -4.011601 -19.374181 0.037597 -1.251880 -3.442210 0.000000 0.000000 0.000000 25.545109 5.806974 -10.004865 -3.353709 -11.246675 33.116469 -1.856803 -4.044178 -27.449872 -0.015256 -0.798541 2.194529 3.787815 -0.256228 -1.891681 0.695185 -0.586669 3.271735 -1.439128 -0.202969 4.412741 1.460268 -1.642828 -4.367875 2.886660 -2.408822 2.291684 0.589335 -1.146600 1.463944 0.000000 0.000000 0.000000 1.085712 -2.724176 -18.525299 12.966009 -21.237381 2.440984 18.213008 -14.448609 -8.913004 0.000000 0.000000 0.000000 -7.125000 0.000000 0.000000 -7.559911 39.247766 -1.078725 0.000000 0.000000 0.000000 -1.222109 -0.511275 19.931800 -15.089063 -24.270088 -3.262425 -19.857353 3.255749 4.405789 0.000000 0.000000 0.000000 7.125000 0.000000 0.000000 5.613325 34.620261 1.436047
49.797883 16.027500 17.622086 -174.725032 -47.344407 176.459344 0.000000 0.000000 0.000000 -16.690172 6.794334 -9.070840 1.938197 8.736094 24.973247 1.153303 -3.988985 -19.366074 0.040580 -1.299954 -3.574643 0.000000 0.000000 0.000000 25.565810 5.839662 -10.019806 -3.354417 -11.247834 33.120303 -1.853055 -4.061431 -27.433230 -0.014917 -0.788410 2.166743 3.787891 -0.263668 -1.904176 0.692909 -0.596207 3.261034 -1.442169 -0.207761 4.408166 1.439858 -1.642141 -4.330937 2.834699 -2.404202 2.342358 0.576883 -1.144475 1.473070 0.000000 0.000000 0.000000 1.075615 -2.672449 -18.523784 12.977287 -21.253898 2.445045 18.245718 -14.438004 -8.922563 0.000000 0.000000 0.000000 -7.125000 0.000000 0.000000 -7.533262 39.260263 -1.072555 0.000000 0.000000 0.000000 -1.284899 -0.513845 20.043035 -15.097751 -24.282056 -3.266070 -19.837764 3.265048 4.511100 0.000000 0.000000 0.000000 7.125000 0.000000 0.000000 5.639443 34.730628 1.427561
49.797800 16.027300 17.620481 -174.715563 -47.323751 176.461000 0.000000 0.000000 0.000000 -16.678131 6.789544 -9.080769 1.940706 8.741412 24.989668 1.152844 -3.955264 -19.366456 0.042606 -1.332430 -3.663922 0.000000 0.000000 0.000000 25.582431 5.864337 -10.015388 -3.353800 -11.246800 33.116800 -1.852762 -4.077237 -27.438931 -0.014656 -0.780838 2.145988 3.784219 -0.276556 -1.924256 0.697375 -0.614706 3.265256 -1.436687 -0.216837 4.423100 1.419501 -1.638607 -4.305050 2.768262 -2.395132 2.384924 0.559912 -1.140400 1.481287 0.000000 0.000000 0.000000 1.041882 -2.632701 -18.498075 12.984950 -21.265169 2.447831 18.224213 -14.407576 -8.943805 0.000000 0.000000 0.000000 -7.125000 0.000000 0.000000 -7.555106 39.280624 -1.071894 0.000000 0.000000 0.000000 -1.373717 -0.519431 20.162336 -15.116694 -24.308425 -3.273831 -19.882180 3.226263 4.499139 0.000000 0.000000 0.000000 7.125000 0.000000 0.000000 5.601714 34.719964 1.419463
49.796981 16.026586 17.619077 -174.712093 -47.287522 176.436486 0.000000 0.000000 0.000000 -16.672781 6.797044 -9.051408 1.943023 8.746351 25.005154 1.155023 -3.903988 -19.392576 0.045137 -1.370717 -3.769597 0.000000 0.000000 0.000000 25.597873 5.896703 -9.974988 -3.355037 -11.248656 33.123292 -1.855661 -4.073178 -27.456655 -0.014809 -0.786387 2.161210 3.802857 -0.265106 -1.895938 0.680063 -0.598561 3.271123 -1.463867 -0.208076 4.413707 1.400860 -1.628809 -4.330080 2.781445 -2.383956 2.445703 0.567122 -1.133514 1.505497 0.000000 0.000000 0.000000 1.060952 -2.604719 -18.598601 12.977518 -21.254229 2.445135 18.208346 -14.413758 -9.056783 0.000000 0.000000 0.000000 -7.125000 0.000000 0.000000 -7.586632 39.396892 -1.054599 0.000000 0.000000 0.000000 -1.418351 -0.527004 20.178819 -15.118037 -24.310251 -3.274414 -19.898087 3.210868 4.478186 0.000000 0.000000 0.000000 7.125000 0.000000 0.000000 5.586715 34.698481 1.418517
49.795669 16.026166 17.617206 -174.722624 -47.250576 176.418937 0.000000 0.000000 0.000000 -16.673484 6.821719 -9.021662 1.944397 8.749294 25.014181 1.154544 -3.868901 -19.393186 0.048753 -1.425403 -3.919992 0.000000 0.000000 0.000000 25.608519 5.949260 -9.927681 -3.358125 -11.253287 33.139090 -1.859825 -4.086583 -27.491455 -0.014803 -0.785795 2.159599 3.805035 -0.251925 -1.853916 0.663006 -0.577466 3.257920 -1.481166 -0.197762 4.376933 1.413763 -1.628775 -4.331857 2.755753 -2.385913 2.530328 0.556662 -1.133475 1.532443 0.000000 0.000000 0.000000 1.081804 -2.548647 -18.704583 12.967775 -21.239913 2.441603 18.159483 -14.420254 -9.149606 0.000000 0.000000 0.000000 -7.125000 0.000000 0.000000 -7.643566 39.489409 -1.045119 0.000000 0.000000 0.000000 -1.459535 -0.492190 20.183718 -15.119659 -24.312590 -3.275031 -19.818975 3.160433 4.516286 0.000000 0.000000 0.000000 7.125000 0.000000 0.000000 5.655454 34.735324 1.431031
